<svg xmlns="http://www.w3.org/2000/svg" viewBox="0 0 32 32" width="32" height="32">
    <!-- Fondo circular -->
    <circle cx="16" cy="16" r="15" fill="#006875" stroke="#ffffff" stroke-width="2" />

    <!-- Llama de fuego -->
    <path
        d="M16 8 C18 10, 20 12, 20 15 C20 18, 18 20, 16 20 C14 20, 12 18, 12 15 C12 12, 14 10, 16 8 Z"
        fill="#ff4444" />
    <path
        d="M16 10 C17 11, 18 12, 18 14 C18 16, 17 17, 16 17 C15 17, 14 16, 14 14 C14 12, 15 11, 16 10 Z"
        fill="#ff6666" />

    <!-- Centro de la llama -->
    <ellipse cx="16" cy="14" rx="1.5" ry="2" fill="#ffaa00" />
</svg>